<svg xmlns="http://www.w3.org/2000/svg" width="629" height="394" viewBox="0 0 629 394" fill="none"><rect width="287.749" height="182.162" rx="91.0808" transform="matrix(-0.707107 0.707107 0.707107 0.707107 499.47 0)" fill="url(#paint0_linear_2074_672)" fill-opacity="0.2"></rect><rect width="315.478" height="182.162" rx="91.0808" transform="matrix(0.707107 -0.707107 -0.707107 -0.707107 128.808 393.884)" fill="url(#paint1_linear_2074_672)" fill-opacity="0.2"></rect><circle cx="326" cy="206" r="165" fill="#0052CC"></circle><rect width="139.329" height="54.0516" rx="27.0258" transform="matrix(0.707107 -0.707107 -0.707107 -0.707107 155.221 334.741)" fill="url(#paint2_linear_2074_672)"></rect><rect width="139.329" height="54.0516" rx="27.0258" transform="matrix(-0.707107 0.707107 0.707107 0.707107 472.597 67)" fill="url(#paint3_linear_2074_672)"></rect><path d="M289.003 199.032C286.247 195.996 282.111 196.272 280.181 199.86L235.521 289.272C233.867 292.86 236.348 297 240.207 297H302.236C304.166 297 306.095 295.896 306.923 293.964C320.707 266.368 312.436 224.144 289.003 199.032Z" fill="url(#paint4_linear_2074_672)"></path><path d="M321.809 117.898C296.998 157.361 298.652 201.24 314.917 234.08C331.458 266.92 343.864 292.308 344.967 293.964C345.793 295.896 347.723 297 349.653 297H411.682C415.541 297 418.298 292.86 416.368 289.273C416.368 289.273 332.836 122.037 330.631 117.898C328.977 114.034 324.015 114.034 321.809 117.898Z" fill="white"></path><defs><linearGradient id="paint0_linear_2074_672" x1="287.749" y1="31.6108" x2="91.4408" y2="-55.5046" gradientUnits="userSpaceOnUse"><stop stop-color="white" stop-opacity="0"></stop><stop offset="0.5" stop-color="#D30602" stop-opacity="0.5"></stop><stop offset="1" stop-color="#D30602"></stop></linearGradient><linearGradient id="paint1_linear_2074_672" x1="315.478" y1="31.6108" x2="107.176" y2="-69.7346" gradientUnits="userSpaceOnUse"><stop stop-color="white" stop-opacity="0"></stop><stop offset="0.5" stop-color="#D30602" stop-opacity="0.5"></stop><stop offset="1" stop-color="#D30602"></stop></linearGradient><linearGradient id="paint2_linear_2074_672" x1="139.329" y1="9.37966" x2="64.6955" y2="-44.667" gradientUnits="userSpaceOnUse"><stop stop-color="white" stop-opacity="0"></stop><stop offset="0.401062" stop-color="white" stop-opacity="0.5"></stop><stop offset="1" stop-color="white"></stop></linearGradient><linearGradient id="paint3_linear_2074_672" x1="139.329" y1="9.37966" x2="64.6955" y2="-44.667" gradientUnits="userSpaceOnUse"><stop stop-color="white" stop-opacity="0"></stop><stop offset="0.401062" stop-color="white" stop-opacity="0.5"></stop><stop offset="1" stop-color="white"></stop></linearGradient><linearGradient id="paint4_linear_2074_672" x1="313.402" y1="212.863" x2="266.261" y2="294.428" gradientUnits="userSpaceOnUse"><stop stop-color="white" stop-opacity="0.4"></stop><stop offset="0.9228" stop-color="white"></stop></linearGradient></defs></svg>